HIERARCHY
ROOT Hips
{
	OFFSET 0.000000 0.000000 0.000000 
	CHANNELS 6 Xposition Yposition Zposition Zrotation Yrotation Xrotation
	JOINT LeftUpLeg
	{
		OFFSET 1.363060 -1.794630 0.839290 
		CHANNELS 3 Zrotation Yrotation Xrotation
		JOINT LeftLeg
		{
			OFFSET 2.448110 -6.726130 0.000000 
			CHANNELS 3 Zrotation Yrotation Xrotation
			JOINT LeftFoot
			{
				OFFSET 2.562200 -7.039590 0.000000 
				CHANNELS 3 Zrotation Yrotation Xrotation
				JOINT LeftToeBase
				{
					OFFSET 0.157640 -0.433110 2.322550 
					CHANNELS 3 Zrotation Yrotation Xrotation
					End Site
					{
						OFFSET 0.000000 0.000000 0.000000 
					}
				}
			}
		}
	}
	JOINT RightUpLeg
	{
		OFFSET -1.305520 -1.794630 0.839290 
		CHANNELS 3 Zrotation Yrotation Xrotation
		JOINT RightLeg
		{
			OFFSET -2.542530 -6.985550 0.000000 
			CHANNELS 3 Zrotation Yrotation Xrotation
			JOINT RightFoot
			{
				OFFSET -2.568260 -7.056230 0.000000 
				CHANNELS 3 Zrotation Yrotation Xrotation
				JOINT RightToeBase
				{
					OFFSET -0.164730 -0.452590 2.363150 
					CHANNELS 3 Zrotation Yrotation Xrotation
					End Site
					{
						OFFSET 0.000000 0.000000 0.000000 
					}
				}
			}
		}
	}
	JOINT Spine
	{
		OFFSET 0.028270 2.035590 -0.193380 
		CHANNELS 3 Zrotation Yrotation Xrotation
		JOINT Spine1
		{
			OFFSET 0.056720 2.048850 -0.042750 
			CHANNELS 3 Zrotation Yrotation Xrotation
			JOINT Neck1
			{
				OFFSET -0.054170 1.746240 0.172020 
				CHANNELS 3 Zrotation Yrotation Xrotation
				JOINT Head
				{
					OFFSET 0.104070 1.761360 -0.123970 
					CHANNELS 3 Zrotation Yrotation Xrotation
					End Site
					{
						OFFSET 0.000000 0.000000 0.000000 
					}
				}
			}
			JOINT LeftArm
			{
				OFFSET 3.362410 1.200890 -0.311210 
				CHANNELS 3 Zrotation Yrotation Xrotation
				JOINT LeftForeArm
				{
					OFFSET 4.983000 -0.000000 -0.000000 
					CHANNELS 3 Zrotation Yrotation Xrotation
					JOINT LeftHand
					{
						OFFSET 3.483560 -0.000000 -0.000000 
						CHANNELS 3 Zrotation Yrotation Xrotation
						JOINT LeftHandIndex1
						{
							OFFSET 0.715260 -0.000000 -0.000000 
							CHANNELS 3 Zrotation Yrotation Xrotation
							End Site
							{
								OFFSET 0.000000 0.000000 0.000000 
							}
						}
					}
				}
			}
			JOINT RightArm
			{
				OFFSET -3.136600 1.374050 -0.404650 
				CHANNELS 3 Zrotation Yrotation Xrotation
				JOINT RightForeArm
				{
					OFFSET -5.241900 -0.000000 -0.000000 
					CHANNELS 3 Zrotation Yrotation Xrotation
					JOINT RightHand
					{
						OFFSET -3.444170 -0.000000 -0.000000 
						CHANNELS 3 Zrotation Yrotation Xrotation
						JOINT RightHandIndex1
						{
							OFFSET -0.622530 -0.000000 -0.000000 
							CHANNELS 3 Zrotation Yrotation Xrotation
							End Site
							{
								OFFSET 0.000000 0.000000 0.000000 
							}
						}
					}
				}
			}
		}
	}
}
MOTION
Frames: 6
Frame Time: 0.041667
14.481129 18.053753 20.517077 -178.425049 -9.588386 -173.261553 -9.928249 -6.224082 -35.898216 7.778180 14.579883 50.813929 0.246910 -1.337666 -6.003257 0.089300 -1.927700 -5.306000 19.515948 19.712281 -20.383802 -5.020372 -10.350494 36.854167 0.391481 -4.543900 -10.314380 -0.015100 -0.794000 2.182300 -3.314755 1.749975 14.212419 -2.560686 0.732871 -2.388377 7.129862 -12.875287 20.426193 1.608800 -6.458500 7.557400 -82.357824 -2.476614 33.314174 34.980576 -40.005663 -14.354685 0.218252 -1.195628 8.700518 -7.125000 0.000000 0.000000 63.967417 12.551752 4.712276 -32.233037 39.373839 -12.822550 0.444013 -0.445530 4.764187 7.125000 0.000000 0.000000 
14.456948 18.040255 20.434629 -178.165024 -9.300869 -173.131880 -9.456537 -6.449616 -36.537650 7.324482 14.219827 49.153402 0.262363 -1.552883 -5.784957 0.009300 -0.622000 -1.709200 19.742122 19.895616 -20.280207 -5.027048 -10.339193 36.862470 0.400897 -4.602546 -10.358297 -0.007200 -0.548900 1.508200 -2.571329 1.118978 15.067230 -2.177747 0.398335 -1.939159 7.324617 -12.279251 20.809728 1.819100 -6.161900 8.065900 -83.168384 -3.454424 31.315329 35.149209 -40.158729 -14.431693 0.207455 -1.205247 8.881761 -7.125000 0.000000 0.000000 62.006279 15.052595 5.478240 -32.498626 39.576075 -12.999792 0.478740 -0.389220 3.712796 7.125000 0.000000 0.000000 
14.429465 18.036662 20.355969 -178.202825 -8.845952 -172.938164 -9.283418 -6.417038 -37.016109 6.780907 13.793580 47.153303 0.239464 -1.593465 -5.108250 0.031400 1.143600 3.144100 19.707672 20.067257 -20.005578 -4.974730 -10.258453 36.602911 0.424196 -4.669674 -10.233481 -0.001900 -0.280100 0.769700 -3.177813 1.653862 15.050129 -2.533803 0.646840 -1.868522 7.563780 -12.774339 20.313887 1.803400 -6.358900 7.820500 -82.497926 -3.501326 32.148229 35.421642 -40.377791 -14.648256 0.193694 -1.191837 8.554415 -7.125000 0.000000 0.000000 61.445134 15.272274 4.310953 -32.960459 39.959515 -13.304007 0.503217 -0.376440 2.852094 7.125000 0.000000 0.000000 
14.400720 18.048121 20.278766 -178.161484 -8.430292 -172.806651 -8.949149 -6.499871 -37.321332 6.215791 13.350690 45.073654 0.193484 -0.749069 -6.018078 0.068000 -1.682800 -4.629900 19.811126 20.258335 -19.585336 -4.930118 -10.184024 36.378926 0.453287 -4.818224 -10.278401 -0.000200 0.096900 -0.266200 -4.193061 2.448602 14.506289 -3.250568 1.039216 -2.153952 7.735594 -13.395596 19.615898 1.719300 -6.635400 7.301600 -81.296094 -2.917495 33.798602 35.838349 -40.700348 -14.977676 0.182979 -1.191616 8.699141 -7.125000 0.000000 0.000000 61.501311 14.612680 2.742796 -33.417326 40.337452 -13.597425 0.543242 -0.354185 2.382008 7.125000 0.000000 0.000000 
14.371684 18.060260 20.200009 -178.108455 -8.267706 -172.678940 -8.602453 -6.927334 -37.511337 5.637705 12.799022 42.815883 0.062581 0.194187 -5.669513 0.169500 -2.652300 -7.312200 19.824150 20.332874 -19.290917 -4.879200 -10.112470 36.136598 0.469695 -4.930273 -10.397589 -0.001400 0.244500 -0.671900 -4.006838 2.060119 14.904867 -3.060270 0.825002 -2.126473 7.753552 -13.019383 19.753066 1.790100 -6.445700 7.518700 -81.556571 -3.349722 32.530783 36.312235 -41.070388 -15.261487 0.209147 -1.256476 9.854793 -7.125000 0.000000 0.000000 60.205010 16.453156 2.623623 -33.521150 40.409602 -13.657271 0.569009 -0.337416 1.626766 7.125000 0.000000 0.000000 
14.343231 18.072884 20.124068 -178.071456 -8.114501 -172.531944 -8.248271 -7.320313 -37.658808 5.052366 12.197058 40.437276 -0.093936 1.072188 -4.645735 0.140500 -2.416000 -6.656900 19.816929 20.300732 -19.114464 -4.835198 -10.048155 35.924664 0.448624 -4.859044 -10.520315 -0.000000 0.030400 -0.083500 -4.143043 1.399239 15.207685 -3.143555 0.454492 -2.184460 8.210342 -12.516477 20.094827 2.035800 -6.173900 7.873000 -81.731835 -3.527520 30.704640 36.492799 -41.245589 -15.357925 0.194419 -1.236571 9.562631 -7.125000 0.000000 0.000000 59.136688 18.575458 3.164227 -33.667603 40.506494 -13.755853 0.598166 -0.329021 0.505595 7.125000 0.000000 0.000000 
